<svg width="15" height="18" viewBox="0 0 15 18" fill="none" xmlns="http://www.w3.org/2000/svg">
<path d="M11.25 0H3.75C2.7558 0.00119089 1.80267 0.396661 1.09966 1.09966C0.396661 1.80267 0.00119089 2.7558 0 3.75V14.25C0.00119089 15.2442 0.396661 16.1973 1.09966 16.9003C1.80267 17.6033 2.7558 17.9988 3.75 18H11.25C12.2442 17.9988 13.1973 17.6033 13.9003 16.9003C14.6033 16.1973 14.9988 15.2442 15 14.25V3.75C14.9988 2.7558 14.6033 1.80267 13.9003 1.09966C13.1973 0.396661 12.2442 0.00119089 11.25 0V0ZM3.75 1.5H11.25C11.8467 1.5 12.419 1.73705 12.841 2.15901C13.2629 2.58097 13.5 3.15326 13.5 3.75V8.25H1.5V3.75C1.5 3.15326 1.73705 2.58097 2.15901 2.15901C2.58097 1.73705 3.15326 1.5 3.75 1.5ZM11.25 16.5H3.75C3.15326 16.5 2.58097 16.2629 2.15901 15.841C1.73705 15.419 1.5 14.8467 1.5 14.25V9.75H13.5V14.25C13.5 14.8467 13.2629 15.419 12.841 15.841C12.419 16.2629 11.8467 16.5 11.25 16.5Z" fill="#333333"/>
<path d="M6.75 5.25H8.25C8.44891 5.25 8.63968 5.17098 8.78033 5.03033C8.92098 4.88968 9 4.69891 9 4.5C9 4.30109 8.92098 4.11032 8.78033 3.96967C8.63968 3.82902 8.44891 3.75 8.25 3.75H6.75C6.55109 3.75 6.36032 3.82902 6.21967 3.96967C6.07902 4.11032 6 4.30109 6 4.5C6 4.69891 6.07902 4.88968 6.21967 5.03033C6.36032 5.17098 6.55109 5.25 6.75 5.25Z" fill="#333333"/>
<path d="M8.25 12.75H6.75C6.55109 12.75 6.36032 12.829 6.21967 12.9697C6.07902 13.1103 6 13.3011 6 13.5C6 13.6989 6.07902 13.8897 6.21967 14.0303C6.36032 14.171 6.55109 14.25 6.75 14.25H8.25C8.44891 14.25 8.63968 14.171 8.78033 14.0303C8.92098 13.8897 9 13.6989 9 13.5C9 13.3011 8.92098 13.1103 8.78033 12.9697C8.63968 12.829 8.44891 12.75 8.25 12.75Z" fill="#333333"/>
</svg>
